<?xml version="1.0" encoding="UTF-8" standalone="no"?>
<!-- Created with Inkscape (http://www.inkscape.org/) -->

<svg
   version="1.1"
   id="svg3627"
   width="614.40002"
   height="345.60001"
   viewBox="0 0 614.40002 345.60001"
   sodipodi:docname="mask02.svg"
   inkscape:version="1.2.1 (9c6d41e410, 2022-07-14, custom)"
   xmlns:inkscape="http://www.inkscape.org/namespaces/inkscape"
   xmlns:sodipodi="http://sodipodi.sourceforge.net/DTD/sodipodi-0.dtd"
   xmlns="http://www.w3.org/2000/svg"
   xmlns:svg="http://www.w3.org/2000/svg">
  <defs
     id="defs3631" />
  <sodipodi:namedview
     id="namedview3629"
     pagecolor="#ffffff"
     bordercolor="#999999"
     borderopacity="1"
     inkscape:showpageshadow="0"
     inkscape:pageopacity="0"
     inkscape:pagecheckerboard="0"
     inkscape:deskcolor="#d1d1d1"
     showgrid="false"
     inkscape:zoom="2.7522785"
     inkscape:cx="234.71462"
     inkscape:cy="173.12928"
     inkscape:window-width="3840"
     inkscape:window-height="2087"
     inkscape:window-x="0"
     inkscape:window-y="0"
     inkscape:window-maximized="1"
     inkscape:current-layer="g3633" />
  <g
     inkscape:groupmode="layer"
     inkscape:label="Image"
     id="g3633">
    <path
       style="fill:#000000;stroke-width:0.32"
       d="M 0,172.8 V 0 H 307.20001 614.40002 V 172.8 345.60001 H 307.20001 0 Z m 129.46779,129.68001 0.69892,-3.28 -1.16335,-0.0235 c -6.45016,-0.13027 -8.79245,-1.52355 -8.46728,-5.03664 0.0752,-0.81224 1.29271,-6.95399 2.70563,-13.64833 1.41291,-6.69435 2.62589,-12.45953 2.69551,-12.81153 0.0696,-0.352 1.00487,-4.816 2.07835,-9.92 2.33833,-11.11802 1.94141,-9.20718 3.5229,-16.96 0.71804,-3.52 1.38234,-6.616 1.47622,-6.88 0.17099,-0.48082 1.22922,1.54313 5.68863,10.88 1.21887,2.552 3.70126,7.71954 5.51641,11.48342 1.81515,3.76388 3.30027,6.88564 3.30027,6.93724 0,0.0516 1.656,3.50762 3.68,7.68003 2.024,4.1724 3.68001,7.62667 3.68001,7.67615 0,0.0495 1.584,3.36038 3.52,7.35757 1.936,3.99719 3.52,7.30428 3.52,7.3491 0,0.0448 1.36167,2.90635 3.02593,6.35897 l 3.02595,6.27751 h 5.75249 c 5.20043,0 5.76882,-0.0537 5.92262,-0.56 0.14352,-0.47245 8.26832,-38.70976 8.71623,-41.02075 0.0832,-0.42941 0.87443,-4.17341 1.75822,-8.32 0.88379,-4.14659 1.67579,-7.89059 1.76,-8.32 0.0842,-0.42941 0.87621,-4.17341 1.76,-8.32 0.88379,-4.14659 1.67643,-7.89925 1.76141,-8.33925 0.77335,-4.00394 1.63015,-5.97636 3.1916,-7.34733 1.47443,-1.29457 4.85154,-2.27697 8.08605,-2.35224 1.42828,-0.0332 2.59746,-0.0806 2.59818,-0.10521 6.4e-4,-0.0246 0.29071,-1.45123 0.64441,-3.17024 0.3537,-1.71901 0.56577,-3.20279 0.47127,-3.29729 -0.33104,-0.33104 -31.56738,-0.22065 -31.77593,0.11231 -0.11024,0.176 -0.22482,0.464 -0.25462,0.64 -0.0298,0.176 -0.291,1.45485 -0.58044,2.84189 -0.28944,1.38704 -0.45834,2.58981 -0.37533,2.67282 0.083,0.083 0.92889,0.19772 1.87973,0.25493 6.94595,0.41792 8.3636,1.87364 7.16006,7.35231 -0.21345,0.97164 -1.54142,7.28592 -1.64803,7.83609 -0.20679,1.06716 -3.71535,17.53026 -3.98996,18.72196 -0.24678,1.0709 -1.10281,5.13748 -1.44827,6.88 -0.0523,0.264 -0.92155,4.296 -1.93158,8.96 -1.01004,4.664 -1.84098,8.66 -1.84654,8.88 -0.0173,0.6857 -0.22529,0.44792 -0.83955,-0.96 -0.32634,-0.748 -1.45333,-3.16 -2.50442,-5.36 -2.23911,-4.6866 -23.28347,-48.87629 -26.05298,-54.70697 -1.04157,-2.19283 -1.96218,-4.05537 -2.04579,-4.13898 -0.31758,-0.31758 -28.04192,-0.19394 -28.24228,0.12595 -0.11024,0.176 -0.22482,0.464 -0.25462,0.64 -0.0298,0.176 -0.291,1.45485 -0.58044,2.84189 -0.28944,1.38704 -0.45949,2.58866 -0.37788,2.67027 0.0816,0.0816 1.20275,0.1918 2.49144,0.24489 6.94838,0.28621 8.91979,1.82984 7.90874,6.19257 -0.14917,0.6437 -1.0699,4.98638 -2.04605,9.65038 -0.97615,4.664 -1.90755,9.056 -2.06978,9.76 -0.24678,1.0709 -1.10281,5.13748 -1.44827,6.88 -0.25432,1.28279 -3.73436,17.60315 -3.99173,18.72 -0.25319,1.09874 -1.13598,5.29616 -1.45557,6.92087 -0.17895,0.90972 -1.43215,6.70634 -2.27419,10.51913 -1.22631,5.55283 -2.39587,7.18187 -5.95622,8.29624 -2.2655,0.70909 -3.82925,0.95416 -6.200075,0.97167 l -1.636211,0.0121 -0.542253,2.8 c -0.298237,1.54 -0.616073,3.05334 -0.706297,3.36297 -0.155248,0.53278 0.698726,0.55852 15.922896,0.48 l 16.08694,-0.083 0.69892,-3.28 z m 97.88057,2.72 c 0.0883,-0.396 0.37904,-1.70094 0.6461,-2.89986 0.26705,-1.19892 0.48555,-2.36931 0.48555,-2.60085 0,-0.30447 -0.7751,-0.46266 -2.8,-0.5715 -4.6323,-0.24896 -6.45554,-1.44293 -6.6492,-4.35429 -0.14985,-2.25293 0.80437,-4.60071 4.92759,-12.12398 l 3.72161,-6.79048 15.76,-0.01 c 12.39645,-0.007 15.76135,0.0758 15.76634,0.39047 0.003,0.22 0.13577,1.336 0.29397,2.48 0.1582,1.144 0.38023,2.944 0.49339,4 0.11316,1.056 0.26471,2.352 0.33679,2.88 1.48364,10.86874 0.94142,12.07518 -6.09777,13.56762 -0.084,0.0178 -1.2768,0.0324 -2.65068,0.0324 h -2.49795 l -0.55209,2.88001 c -0.30365,1.584 -0.63498,3.096 -0.73628,3.36 -0.16258,0.42367 2.29296,0.47999 20.92606,0.47999 h 21.11025 l 0.69121,-3.24611 c 0.38016,-1.78536 0.64869,-3.28863 0.59671,-3.3406 -0.052,-0.052 -0.99256,-0.1269 -2.09021,-0.16651 -5.08343,-0.18344 -6.82968,-2.65747 -8.22068,-11.64678 -0.2144,-1.38551 -0.17223,-1.08987 -3.69734,-25.92 -1.77405,-12.496 -3.27841,-23.08 -3.34302,-23.52 -0.44679,-3.04233 -0.5521,-3.76959 -0.6487,-4.48 -0.0598,-0.44 -0.20383,-1.448 -0.32,-2.24 -0.11617,-0.792 -0.26017,-1.8 -0.32,-2.24 -0.0598,-0.44 -0.20383,-1.448 -0.32,-2.24 -0.11617,-0.792 -0.26017,-1.8 -0.32,-2.24 -0.10486,-0.77107 -0.40194,-2.81588 -0.65089,-4.48 -0.0658,-0.44 -0.21427,-1.52 -0.32988,-2.4 -0.26922,-2.04936 -0.38801,-2.66586 -0.57052,-2.9612 -0.21818,-0.35306 -17.12672,-0.25536 -17.44084,0.10077 -0.14574,0.16524 -2.47191,4.11643 -5.16925,8.78043 -2.69735,4.664 -5.37199,9.272 -5.94366,10.24 -0.57167,0.968 -4.0884,7.016 -7.81496,13.44 -3.72657,6.424 -7.24116,12.472 -7.81022,13.44 -1.41666,2.40984 -2.55633,4.36461 -10.88919,18.67717 -6.99478,12.01428 -8.52885,14.51196 -9.92623,16.16129 -2.18911,2.58382 -3.65245,3.30891 -7.05436,3.49546 -1.408,0.0772 -2.61365,0.18931 -2.67922,0.24911 -0.13653,0.12453 -1.28907,5.5314 -1.30817,6.13697 -0.01,0.31499 3.48877,0.4 16.46129,0.4 h 16.47391 l 0.16054,-0.72 z m 5.69301,-38.92002 c 0.55093,-0.98999 1.334,-2.33712 1.74016,-2.99362 0.40616,-0.65651 0.73848,-1.2564 0.73848,-1.33311 0,-0.0767 2.7656,-5.08357 6.14579,-11.12636 3.38019,-6.04279 7.55619,-13.78044 9.28,-17.19477 l 3.13421,-6.20787 0.0416,1.72787 c 0.0229,0.95033 0.069,2.08788 0.10243,2.52788 0.0767,1.00834 0.52018,5.60501 0.66385,6.88 0.28683,2.54546 0.4707,4.33671 0.64054,6.24 0.10208,1.144 0.24135,2.44 0.30949,2.88 0.0681,0.44 0.22334,1.736 0.34489,2.88 0.12155,1.144 0.25028,2.296 0.28606,2.56 0.0358,0.264 0.17228,1.416 0.30334,2.56 0.13105,1.144 0.2896,2.44 0.35233,2.88 0.0627,0.44 0.19481,1.52 0.29354,2.4 0.19887,1.77268 0.43191,3.76926 0.68351,5.85592 l 0.16591,1.37592 -13.11391,-0.0559 -13.11391,-0.0559 z m 93.54642,36.20002 0.69894,-3.28 -1.16336,-0.0235 c -4.66333,-0.0942 -7.33811,-0.9461 -8.1347,-2.59088 -0.5944,-1.2273 -0.45976,-2.69283 0.77252,-8.40914 0.53312,-2.47307 1.03837,-4.85648 1.12276,-5.29648 0.0844,-0.44 0.30144,-1.448 0.4823,-2.24 0.1809,-0.792 0.39632,-1.79181 0.47878,-2.2218 0.0824,-0.42998 2.36343,-11.15799 5.06887,-23.84 2.70544,-12.68201 5.1024,-23.9582 5.32656,-25.0582 0.22419,-1.1 0.52278,-2 0.66358,-2 0.14077,0 0.22922,0.108 0.19651,0.24 -0.0507,0.2046 0.0702,1.30025 0.5561,5.04 0.0458,0.352 0.17376,1.432 0.28448,2.4 0.11072,0.968 0.25942,1.976 0.33046,2.24 0.071,0.264 0.22468,1.416 0.34141,2.56 0.11677,1.144 0.25466,2.152 0.30647,2.24 0.0518,0.088 0.18992,1.096 0.30697,2.24 0.24263,2.37143 0.36157,3.33989 0.61885,5.03914 0.1,0.66047 0.26122,1.84886 0.35824,2.64086 0.0971,0.792 0.24038,1.8 0.31853,2.24 0.0781,0.44 0.21869,1.52 0.31238,2.4 0.0937,0.88 0.22928,2.032 0.30131,2.56 0.072,0.528 0.22551,1.68 0.34106,2.56 0.11552,0.88 0.26224,1.96 0.32602,2.4 0.18864,1.30136 0.49801,3.6091 0.62204,4.64 0.0635,0.528 0.27802,2.184 0.47668,3.68 0.19865,1.496 0.43257,3.296 0.51981,4 0.0873,0.704 0.22256,1.64 0.3007,2.08 0.0781,0.44 0.22266,1.592 0.32122,2.56 0.0985,0.968 0.23728,1.976 0.30832,2.24 0.071,0.264 0.22528,1.416 0.34275,2.56 0.1175,1.144 0.25347,2.296 0.30221,2.56 0.0941,0.51003 0.41913,2.94156 0.6416,4.8 0.0738,0.616 0.20828,1.624 0.299,2.24 0.20256,1.37562 0.36234,2.57675 0.80874,6.08 0.59155,4.64258 0.0227,4.16 4.90323,4.16 3.76986,0 4.27754,-0.065 4.60519,-0.58968 0.20256,-0.32432 1.19548,-2.16032 2.20656,-4.08 1.01104,-1.91968 2.28963,-4.28232 2.84131,-5.25032 0.55168,-0.968 1.63488,-2.984 2.4071,-4.48 0.77226,-1.496 1.78058,-3.368 2.24071,-4.16 0.46012,-0.792 1.46275,-2.664 2.228,-4.16 0.76524,-1.496 1.49619,-2.864 1.62435,-3.04 0.12813,-0.176 0.88368,-1.544 1.67904,-3.04 0.79536,-1.496 4.00355,-7.472 7.12931,-13.28 3.12576,-5.808 6.32902,-11.784 7.1183,-13.28 0.78932,-1.496 1.61024,-3.008 1.82432,-3.36 0.21405,-0.352 1.29722,-2.368 2.40701,-4.48 1.10983,-2.112 2.12115,-3.984 2.24743,-4.16 0.12627,-0.176 1.10428,-1.976 2.17337,-4 3.31872,-6.28292 3.88704,-7.24101 3.8913,-6.56 0.003,0.352 -0.13287,1.144 -0.30016,1.76 -0.1673,0.616 -0.36675,1.48 -0.4433,1.92 -0.1312,0.75442 -2.42131,11.60226 -3.10758,14.72 -0.17434,0.792 -0.37159,1.7349 -0.43834,2.09534 -0.13273,0.71663 -2.57136,12.22631 -3.08166,14.54466 -0.17434,0.792 -0.37159,1.7349 -0.43834,2.09534 -0.16198,0.87449 -2.64105,12.5551 -3.22278,15.18466 -0.25309,1.144 -0.90647,4.24 -1.45194,6.88 -0.54547,2.64 -1.284,5.54929 -1.64118,6.4651 -0.8896,2.28107 -2.40423,3.78995 -4.42714,4.41034 -2.56045,0.78525 -4.48374,1.09451 -6.91837,1.11247 l -1.63836,0.0121 -0.3954,2 c -0.2175,1.1 -0.45788,2.36 -0.5342,2.8 -0.0764,0.44 -0.21485,1.052 -0.30781,1.36 -0.15978,0.5295 1.01565,0.56 21.58045,0.56 h 21.74944 l 0.51011,-2.32 c 0.28058,-1.276 0.60102,-2.788 0.71213,-3.36 l 0.20201,-1.04 -2.28,-0.04 c -1.25398,-0.022 -2.388,-0.065 -2.52,-0.0957 -0.132,-0.0306 -0.96,-0.17036 -1.84,-0.31055 -2.94172,-0.46865 -4.36448,-1.95063 -4.1448,-4.31736 0.059,-0.63604 0.84768,-4.61243 1.75252,-8.83643 0.90486,-4.224 1.70643,-7.9948 1.78128,-8.37955 0.0748,-0.38475 2.16233,-10.32075 4.63884,-22.08 2.47648,-11.75925 4.57175,-21.74045 4.65613,-22.18045 0.0844,-0.44 0.30141,-1.448 0.48227,-2.24 0.1809,-0.792 0.39776,-1.8 0.48192,-2.24 0.30039,-1.57019 1.43402,-3.67319 2.51261,-4.66114 1.64951,-1.51091 5.58643,-2.58483 9.35923,-2.55302 0.924,0.008 1.68,-0.006 1.68,-0.0306 0,-0.0246 0.28938,-1.45123 0.64311,-3.17024 0.35369,-1.71901 0.56563,-3.2029 0.47101,-3.29754 -0.0947,-0.0946 -8.32496,-0.18003 -18.2896,-0.18976 l -18.11751,-0.0177 -0.70003,1.12 c -0.38499,0.616 -1.46547,2.56 -2.40099,4.32 -1.7385,3.27053 -2.6993,5.05227 -4.40029,8.16 -0.52983,0.968 -4.52877,8.384 -8.88653,16.48 -7.75395,14.40555 -8.96352,16.65168 -11.15795,20.72 -0.59335,1.1 -1.70007,3.152 -2.45943,4.56 -0.75932,1.408 -1.91446,3.5482 -2.56697,4.756 l -1.1864,2.19599 -0.21981,-1.39599 c -0.1209,-0.7678 -0.27808,-1.76766 -0.34925,-2.22192 -0.0712,-0.45426 -0.19929,-1.37155 -0.28467,-2.03843 -0.18304,-1.42954 -0.39408,-2.98947 -0.67318,-4.97565 -0.11127,-0.792 -0.25444,-1.84103 -0.31815,-2.33118 -0.0637,-0.49015 -0.19398,-1.46215 -0.28957,-2.16 -0.0956,-0.69785 -0.25027,-1.88082 -0.34377,-2.62882 -0.0935,-0.748 -0.23299,-1.72 -0.31002,-2.16 -0.12198,-0.69689 -0.27328,-1.72892 -0.63334,-4.32 -0.0489,-0.352 -0.19488,-1.504 -0.32439,-2.56 -0.1295,-1.056 -0.2904,-2.208 -0.35753,-2.56 -0.0672,-0.352 -0.19821,-1.29931 -0.29123,-2.10514 -0.093,-0.80584 -0.22234,-1.74184 -0.28733,-2.08 -0.065,-0.33817 -0.22019,-1.55086 -0.34483,-2.69486 -0.12464,-1.144 -0.27149,-2.1541 -0.32631,-2.24466 -0.0548,-0.0906 -0.20048,-1.17057 -0.32365,-2.4 -0.12316,-1.22944 -0.26899,-2.31239 -0.32403,-2.40656 -0.0551,-0.0942 -0.1992,-1.03017 -0.32032,-2.08 -0.12112,-1.04983 -0.27517,-2.19678 -0.3423,-2.54878 -0.0672,-0.352 -0.19821,-1.29931 -0.29123,-2.10515 -0.093,-0.80583 -0.22234,-1.74183 -0.28733,-2.08 -0.065,-0.33816 -0.22019,-1.55085 -0.34483,-2.69485 -0.12464,-1.144 -0.27149,-2.1541 -0.32631,-2.24466 -0.0548,-0.0906 -0.20013,-1.17057 -0.32285,-2.4 -0.12275,-1.22944 -0.33894,-2.37934 -0.48048,-2.55534 -0.29952,-0.37252 -35.03248,-0.42589 -35.40398,-0.0544 -0.1281,0.12811 -0.26108,0.40876 -0.29551,0.62366 -0.0344,0.21491 -0.2994,1.52559 -0.58884,2.91264 -0.28944,1.38704 -0.45949,2.58866 -0.37789,2.67027 0.0816,0.0816 1.20276,0.1918 2.49144,0.24489 6.94838,0.28621 8.91981,1.82983 7.90877,6.19256 -0.14919,0.64371 -1.06992,4.98638 -2.04608,9.65038 -0.97614,4.664 -1.90754,9.056 -2.06977,9.76 -0.24678,1.0709 -1.10281,5.13748 -1.44828,6.88 -0.25432,1.2828 -3.73436,17.60316 -3.99172,18.72 -0.2532,1.09875 -1.13598,5.29617 -1.45557,6.92088 -0.17895,0.90972 -1.43216,6.70633 -2.27419,10.51913 -1.22632,5.55283 -2.39587,7.18187 -5.95622,8.29624 -2.26608,0.70927 -3.82928,0.95417 -6.20224,0.97167 l -1.63836,0.0121 -0.39541,2 c -0.21748,1.1 -0.45787,2.36 -0.5342,2.8 -0.0763,0.44 -0.21526,1.05333 -0.30873,1.36297 -0.16085,0.53284 0.69093,0.55853 15.917,0.48 l 16.08693,-0.083 0.69892,-3.28 z m 162.76506,2.16 c 0.14249,-0.616 0.33712,-1.48 0.43254,-1.92 0.0954,-0.44 1.24474,-5.08042 2.55405,-10.31205 1.30931,-5.23162 2.38058,-9.65962 2.38058,-9.84 0,-0.20811 -1.61546,-0.32795 -4.42084,-0.32795 h -4.4208 l -0.73772,2.16 c -1.48272,4.34122 -3.15053,7.3632 -5.2361,9.48739 -3.95203,4.02525 -5.25565,4.31364 -19.63827,4.34448 -10.52096,0.0226 -10.98628,-0.002 -10.98628,-0.57395 0,-0.5595 7.212,-34.71995 7.47805,-35.4206 0.0799,-0.21045 5.14615,-0.32083 14.56522,-0.31734 15.97405,0.006 14.56765,0.19376 14.95363,-1.99724 0.0855,-0.48551 0.36423,-1.79168 0.61933,-2.9026 0.25507,-1.11092 0.46378,-2.15492 0.46378,-2.32 0,-0.18241 -5.64845,-0.30014 -14.4,-0.30014 -11.07831,0 -14.40001,-0.0896 -14.40001,-0.38845 0,-0.38457 6.29489,-30.35717 6.57415,-31.30229 0.12646,-0.42795 1.38365,-0.48644 9.82544,-0.45715 10.76285,0.0373 12.02502,0.22824 14.00221,2.11775 2.22809,2.12929 2.7336,4.78675 2.15248,11.31596 l -0.22835,2.56582 4.37132,-0.009 c 3.55053,-0.007 4.40071,-0.0968 4.52772,-0.47778 0.086,-0.258 1.11692,-5.54871 2.29094,-11.75713 1.33994,-7.08563 2.00608,-11.29952 1.78934,-11.31886 -0.18988,-0.017 -15.731,-0.0529 -34.5358,-0.08 -22.50033,-0.0324 -34.25911,0.0602 -34.39101,0.27082 -0.11024,0.176 -0.22484,0.464 -0.25463,0.64 -0.0298,0.176 -0.29097,1.45485 -0.58041,2.84189 -0.28944,1.38704 -0.45949,2.58867 -0.37789,2.67027 0.0816,0.0816 1.20275,0.19181 2.49142,0.24489 5.75655,0.23713 7.83805,1.21151 8.06826,3.77688 0.0562,0.62593 -0.43671,3.63286 -1.09527,6.68207 -1.06473,4.92989 -2.77296,13.0188 -3.03238,14.35934 -0.18323,0.94664 -2.7399,12.95716 -3.1983,15.02466 -0.25364,1.144 -1.26176,5.896 -2.24026,10.56 -0.97853,4.664 -1.92211,9.128 -2.09683,9.92 -0.17475,0.792 -0.38362,1.8 -0.46416,2.24 -0.0805,0.44 -0.59267,2.816 -1.13808,5.28 -1.41786,6.40525 -2.45616,7.94446 -6.13603,9.09625 -2.26551,0.70908 -3.82925,0.95416 -6.2001,0.97167 l -1.63619,0.0121 -0.54224,2.8 c -0.29824,1.54 -0.61587,3.05261 -0.70579,3.36136 -0.15533,0.53315 1.68112,0.55726 36.56534,0.48 l 36.7289,-0.0814 z M 421.28001,132.05287 c 0.352,-0.078 1.288,-0.23094 2.08,-0.33977 2.43559,-0.33465 3.27872,-0.51959 5.6,-1.22835 1.232,-0.37616 2.312,-0.70518 2.4,-0.73115 1.90861,-0.5633 7.37991,-3.47661 7.62666,-4.06098 0.0587,-0.13894 0.26253,-0.25262 0.45302,-0.25262 0.79306,0 5.59639,-5.36913 6.87412,-7.68389 2.1887,-3.965 3.01603,-7.33525 3.14112,-12.79611 0.12428,-5.425309 -0.4034,-8.188983 -2.28007,-11.94193 -3.07078,-6.140816 -7.30941,-9.999517 -17.09485,-15.562484 -11.57123,-6.578186 -14.039,-8.645987 -15.68163,-13.140029 -0.44489,-1.217206 -0.56989,-2.403888 -0.53024,-5.034096 0.0452,-3.000058 0.16186,-3.676147 0.90951,-5.271242 1.80726,-3.855946 5.44691,-6.532214 10.06649,-7.402022 6.89687,-1.298589 11.67792,1.407078 14.19546,8.033437 0.31728,0.835104 0.66595,2.022368 0.77481,2.638368 0.17754,1.004422 0.26986,1.622128 0.6696,4.48 0.0615,0.44 0.12183,1.123837 0.13396,1.519638 0.0214,0.697888 0.097,0.714387 2.50204,0.545917 8.04586,-0.5636 12.35444,-3.120563 13.67156,-8.113511 2.1574,-8.178371 -5.53165,-15.033027 -18.55156,-16.53839 -0.88,-0.101748 -1.96,-0.246189 -2.4,-0.320983 -1.07936,-0.183478 -11.15504,-0.186633 -12.16,-0.0038 -0.44,0.08004 -1.52,0.235434 -2.4,0.345309 -8.82374,1.101718 -17.03657,5.757098 -21.34246,12.097802 -5.24714,7.726749 -5.33581,19.467824 -0.21101,27.941393 2.50445,4.140995 8.45559,9.165744 15.88455,13.411888 12.20342,6.975085 15.82777,10.916915 16.195,17.613705 0.23284,4.24644 -1.14764,7.87376 -4.01865,10.55927 -1.48256,1.38674 -4.13699,2.86268 -5.76826,3.20729 -2.91037,0.61484 -3.89475,0.7147 -6.01917,0.61064 -3.31004,-0.16215 -3.9839,-0.32681 -6.64697,-1.62429 -5.99232,-2.9195 -9.16624,-8.91552 -9.8097,-18.53186 -0.0707,-1.056 -0.1408,-2.1091 -0.1559,-2.34021 -0.0208,-0.32024 -0.5032,-0.37646 -2.02743,-0.23633 -6.90457,0.6348 -11.17369,2.86446 -13.27017,6.93071 -0.80701,1.56523 -0.88983,2.03849 -0.88983,5.08583 0,3.20787 0.0525,3.46866 1.16058,5.76 1.37888,2.85148 2.78425,4.53891 5.48425,6.5849 3.16471,2.39816 8.32218,4.49404 12.55517,5.10215 0.704,0.10114 1.46317,0.24562 1.68704,0.32108 0.22391,0.0754 1.73591,0.23125 3.36,0.3462 1.62413,0.11495 3.00064,0.24993 3.05892,0.29995 0.1615,0.13864 10.04371,-0.11947 10.77404,-0.28141 z M 89.108355,130.48 c 0.0883,-0.396 0.37904,-1.70093 0.646096,-2.89985 0.267053,-1.19892 0.485552,-2.36931 0.485552,-2.60086 0,-0.30446 -0.775098,-0.46266 -2.8,-0.57149 -4.632301,-0.24897 -6.45554,-1.44294 -6.649194,-4.35429 -0.149856,-2.25293 0.804362,-4.60072 4.927584,-12.12398 l 3.72161,-6.79048 15.759997,-0.01 c 12.39645,-0.007 15.76136,0.0758 15.76634,0.39048 0.003,0.22 0.13578,1.336 0.29398,2.48 0.1582,1.144 0.38022,2.944 0.49338,4 0.11316,1.056 0.26472,2.352 0.3368,2.88 1.48364,10.86874 0.94142,12.07518 -6.09777,13.56762 -0.084,0.0178 -1.27681,0.0324 -2.65068,0.0324 h -2.49796 l -0.55209,2.88001 c -0.30364,1.584 -0.63497,3.096 -0.73628,3.36 -0.16257,0.42367 2.29296,0.47999 20.92606,0.47999 h 21.11026 l 0.69121,-3.24611 c 0.38016,-1.78536 0.64868,-3.28863 0.59671,-3.3406 -0.052,-0.052 -0.99257,-0.1269 -2.09021,-0.16651 -5.38035,-0.19416 -7.16331,-3.11479 -8.57515,-14.04678 -0.10228,-0.792 -0.39782,-2.88 -0.65676,-4.64 -0.25893,-1.76 -0.54913,-3.776 -0.64489,-4.48 -0.0958,-0.704 -2.10435,-14.811765 -4.46353,-31.350584 -2.35918,-16.53882 -4.28941,-30.07482 -4.2894,-30.080001 3.2e-4,-0.197719 -17.38011,0.133997 -17.55708,0.335088 -0.14303,0.162521 -2.46697,4.111494 -5.16432,8.775494 -2.69734,4.664001 -5.37199,9.272001 -5.94365,10.240001 -1.00889,1.708333 -4.095389,7.016058 -23.818715,40.960002 -9.025638,15.53317 -11.138029,19.00885 -12.603155,20.73691 -2.211549,2.60845 -3.66264,3.32999 -7.073098,3.517 -1.408,0.0772 -2.613648,0.18932 -2.679216,0.24912 -0.136535,0.12453 -1.289075,5.5314 -1.30817,6.13697 -0.0099,0.31498 3.488772,0.4 16.46129,0.4 h 16.473905 l 0.160544,-0.72 z m 5.692934,-38.919866 c 0.550967,-0.990071 1.334074,-2.337271 1.740237,-2.993773 0.40616,-0.656502 0.738477,-1.2564 0.738477,-1.333107 0,-0.07671 2.765607,-5.083572 6.145797,-11.126362 3.38018,-6.042788 7.55618,-13.780433 9.28,-17.194762 l 3.1342,-6.207872 0.0416,1.727872 c 0.0229,0.950329 0.069,2.087872 0.10243,2.527872 0.0767,1.008339 0.52018,5.605017 0.66385,6.88 0.2058,1.826352 0.47275,4.326499 0.6321,5.92 0.25301,2.530035 0.46479,4.52976 0.6355,6.000416 0.36833,3.173274 0.48536,4.140061 0.62943,5.199584 0.0838,0.616 0.22452,1.768 0.31283,2.56 0.0883,0.792 0.23779,2.088 0.3322,2.88 0.0944,0.792001 0.24682,2.088001 0.3387,2.880001 0.0919,0.792 0.24169,2.059075 0.33293,2.815724 l 0.16588,1.375722 -13.11397,-0.05559 -13.113971,-0.05559 z M 202.03455,130.64 c 0.17556,-0.62351 0.5724,-2.54136 0.57679,-2.78753 0.002,-0.087 0.19361,-0.88139 0.42678,-1.76532 l 0.42396,-1.60715 -3.65104,-0.04 c -2.00807,-0.022 -3.75903,-0.065 -3.89103,-0.0956 -0.132,-0.0306 -0.96,-0.16926 -1.84,-0.3081 -2.66363,-0.42024 -3.85805,-1.38896 -4.19926,-3.40575 -0.16724,-0.98856 -0.11557,-1.25869 3.47175,-18.1496 l 2.32751,-10.959096 4.49825,-9.6e-4 4.49824,-9.6e-4 1.74085,5.36 c 0.95746,2.948 1.7491,5.431996 1.7592,5.519996 0.0101,0.088 1.2027,3.79358 2.65022,8.23461 3.59913,11.04226 5.07957,13.72777 9.01726,16.35726 3.98365,2.66017 8.51479,3.64233 18.74624,4.06338 l 4.83027,0.19878 0.69696,-3.27312 c 0.38332,-1.80022 0.65771,-3.30743 0.60973,-3.34937 -0.048,-0.0419 -0.76828,-0.15714 -1.60068,-0.25602 -3.241,-0.38499 -5.4721,-2.00995 -7.4922,-5.45672 -1.51746,-2.58915 -2.51172,-5.04746 -7.58943,-18.76493 -2.37668,-6.420627 -4.4088,-11.900663 -4.51582,-12.177859 -0.15241,-0.394762 0.24164,-0.631613 1.81816,-1.092842 1.10701,-0.323866 2.08475,-0.606173 2.17275,-0.627347 0.088,-0.02118 0.52,-0.237728 0.96,-0.481232 0.44,-0.243501 0.83654,-0.41721 0.88119,-0.386016 0.0447,0.0312 0.99194,-0.356231 2.10505,-0.860941 6.0116,-2.725792 10.80082,-7.546128 12.96956,-13.053825 1.64909,-4.188022 2.10969,-11.631379 0.99053,-16.007238 -1.54897,-6.056289 -5.47859,-10.321511 -11.82633,-12.836209 -1.91149,-0.757248 -4.77842,-1.540653 -6.67129,-1.822973 -0.65688,-0.09797 -1.54857,-0.247097 -1.98152,-0.331382 -0.43296,-0.08429 -2.01119,-0.246474 -3.50719,-0.360416 -3.64624,-0.277718 -46.04744,-0.333408 -46.48807,-0.06106 -0.1908,0.117926 -0.37736,0.405926 -0.4146,0.64 -0.0372,0.234073 -0.30452,1.560441 -0.59396,2.947485 -0.28944,1.38704 -0.45949,2.588662 -0.37788,2.670269 0.0816,0.08161 1.20276,0.191804 2.49144,0.244889 6.94838,0.286215 8.9198,1.829837 7.90875,6.192567 -0.14918,0.643709 -1.0699,4.986381 -2.04606,9.650381 -0.97615,4.664 -1.90755,9.056 -2.06978,9.76 -0.24678,1.070899 -1.10281,5.137479 -1.44827,6.88 -0.25432,1.282797 -3.73436,17.603153 -3.99173,18.720001 -0.25319,1.098742 -1.13598,5.296168 -1.45557,6.920868 -0.17895,0.90973 -1.43215,6.70634 -2.27418,10.51913 -1.22632,5.55284 -2.39588,7.18188 -5.95623,8.29625 -2.26607,0.70926 -3.82927,0.95416 -6.20223,0.97167 l -1.63837,0.0121 -0.39541,2 c -0.21747,1.1 -0.45786,2.36 -0.53419,2.8 -0.0763,0.44 -0.21485,1.052 -0.30779,1.36 -0.15987,0.52974 1.08471,0.56 23.031,0.56 21.82184,0 23.20936,-0.0333 23.35767,-0.56 z m -4.81133,-47.180593 c 0.16317,-0.661657 6.25694,-27.797658 6.41791,-28.579405 0.0362,-0.176 0.41893,-1.953735 0.85042,-3.950519 l 0.78452,-3.630518 5.44197,0.118784 c 5.19396,0.113366 5.53396,0.16088 7.4606,1.042579 3.6123,1.65312 5.45623,4.661434 6.10195,9.955162 0.28588,2.343696 0.22304,7.849222 -0.11124,9.744512 -0.10864,0.616 -0.25926,1.482032 -0.3347,1.924518 -0.58562,3.43466 -3.0412,7.680756 -5.59376,9.672506 -4.20017,3.277373 -7.80246,4.287757 -15.60689,4.377482 l -5.59312,0.0643 z M 304.12588,128.88 c 0.28056,-1.276 0.60101,-2.788 0.71212,-3.36 l 0.20201,-1.04 -2.28,-0.04 c -1.254,-0.022 -2.388,-0.065 -2.52,-0.0956 -0.132,-0.0306 -0.9581,-0.17055 -1.83579,-0.31098 -2.1115,-0.33782 -3.24798,-0.96038 -3.83879,-2.10289 -0.66461,-1.28522 -0.62795,-1.80328 0.50114,-7.07991 0.54261,-2.53581 1.04613,-4.91638 1.11893,-5.29015 0.0728,-0.37377 2.6648,-12.613768 5.76001,-27.199998 3.0952,-14.586231 5.69355,-26.88042 5.77411,-27.32042 0.0805,-0.44 0.47165,-2.312 0.86909,-4.160001 l 0.72262,-3.36 6.38434,0.02166 c 6.98095,0.02368 8.92492,0.324103 10.66236,1.64768 0.59292,0.451674 1.36566,1.471447 1.71721,2.26616 0.63728,1.440679 0.65274,2.977706 0.081,8.041364 -0.071,0.628717 -0.21133,2.043123 -0.31181,3.143123 l -0.18275,2 h 4.14762 c 4.57261,0 4.27875,0.140858 4.67347,-2.24 0.10211,-0.616 0.77027,-4.36 1.4848,-8.32 0.71453,-3.96 1.36797,-7.632 1.4521,-8.16 0.0841,-0.528 0.35385,-2.023072 0.59936,-3.322384 0.24553,-1.299309 0.39145,-2.451309 0.32429,-2.56 -0.20352,-0.329284 -78.8846,-0.185732 -79.20007,0.144496 -0.15652,0.16384 -0.86867,2.817888 -1.58256,5.897888 -0.71389,3.08 -1.95103,8.336 -2.7492,11.68 -0.79816,3.344 -1.45126,6.26 -1.45133,6.48 -8e-5,0.299328 1.03855,0.4 4.12685,0.4 h 4.12697 l 1.19291,-3.722608 c 2.77718,-8.666528 5.66913,-12.195443 10.72864,-13.091674 0.78349,-0.138784 4.12452,-0.269168 7.42452,-0.289744 6.66399,-0.04155 6.24861,-0.203913 5.6897,2.224026 -0.16206,0.704 -0.37971,1.784 -0.48367,2.4 -0.10395,0.616 -0.25276,1.336 -0.33069,1.6 -0.0779,0.264 -0.72602,3.288 -1.44022,6.72 -0.7142,3.432 -1.5235,7.32 -1.79846,8.64 -0.27496,1.32 -0.54603,2.634394 -0.60238,2.920871 -0.0564,0.28648 -0.39381,1.87048 -0.74991,3.52 -0.3561,1.649523 -0.71556,3.380432 -0.7988,3.84647 -0.0832,0.466036 -0.52355,2.590036 -0.97846,4.720001 -0.45491,2.129961 -1.18044,5.564659 -1.61228,7.632659 -0.43185,2.068 -1.28792,6.136 -1.9024,9.040001 -0.61447,2.904 -1.20232,5.784 -1.30631,6.4 -0.104,0.616 -0.25243,1.336 -0.32984,1.6 -0.0774,0.264 -0.57374,2.55509 -1.10295,5.09131 -0.93463,4.47917 -1.75205,6.69436 -2.85401,7.73428 -1.75208,1.65344 -4.1692,2.46127 -8.19932,2.74033 -1.584,0.10968 -2.90771,0.21993 -2.94158,0.245 -0.0834,0.0617 -1.37842,6.01271 -1.37842,6.33411 0,0.14024 9.84954,0.25498 21.88788,0.25498 h 21.88788 z m 66.90754,1.6 c 0.0911,-0.396 0.43552,-1.908 0.76538,-3.36 l 0.59974,-2.64 -2.35926,-0.04 c -1.2976,-0.022 -2.46727,-0.065 -2.59927,-0.0956 -0.132,-0.0306 -0.95811,-0.17055 -1.83577,-0.31098 -2.77594,-0.44412 -3.88672,-1.33347 -4.20746,-3.36873 -0.0734,-0.46593 0.38579,-3.29007 1.02048,-6.27588 0.63472,-2.98582 1.22099,-5.77299 1.30282,-6.19372 0.0818,-0.42073 2.73792,-13.068708 5.90246,-28.106625 4.26234,-20.254852 5.96074,-27.750253 6.55248,-28.918039 0.45206,-0.892071 1.35174,-1.976909 2.07254,-2.499063 1.52429,-1.104188 4.94,-2.000694 8.03575,-2.109091 1.23251,-0.04316 2.35485,-0.205315 2.49408,-0.360345 0.32509,-0.361988 1.384,-5.811341 1.19017,-6.124925 -0.18713,-0.302823 -43.32291,-0.26826 -43.62611,0.03495 -0.12464,0.12464 -0.25478,0.402451 -0.28921,0.617357 -0.0344,0.214906 -0.2994,1.52559 -0.58884,2.912634 -0.28944,1.38704 -0.45948,2.588662 -0.37788,2.670269 0.0816,0.08161 1.20275,0.191804 2.49142,0.244889 7.16992,0.295341 8.75328,1.629802 7.88422,6.644852 -0.15993,0.922953 -0.87584,4.414096 -1.59091,7.758096 -0.71504,3.344 -1.36317,6.44 -1.44025,6.88 -0.0771,0.44 -0.27108,1.304 -0.43104,1.92 -0.16,0.616 -0.37552,1.624 -0.47895,2.24 -0.10342,0.616 -0.31942,1.624 -0.48,2.24 -0.16057,0.616 -0.37657,1.624 -0.48,2.24 -0.10342,0.616 -0.31942,1.624 -0.48,2.24 -0.16057,0.616 -0.37657,1.624 -0.48,2.24 -0.10342,0.616 -0.32512,1.637108 -0.49267,2.269124 -0.16752,0.632019 -0.44282,1.856019 -0.61178,2.72 -0.16896,0.863984 -0.60544,2.938877 -0.96998,4.610877 -0.36454,1.672 -0.86381,3.976 -1.1095,5.12 -0.24567,1.144 -1.11124,5.176 -1.92343,8.96 -3.2984,15.36671 -3.43165,15.7975 -5.41821,17.51453 -1.44902,1.2524 -5.48861,2.28722 -9.03065,2.31339 l -1.6362,0.0121 -0.54224,2.8 c -0.29824,1.54 -0.61568,3.052 -0.70537,3.36 -0.15421,0.52948 1.03264,0.56 21.77238,0.56 h 21.93546 l 0.1656,-0.72 z m 140.13245,-1.6 c 0.28058,-1.276 0.60103,-2.788 0.71213,-3.36 l 0.20202,-1.04 -2.28,-0.04 c -1.25399,-0.022 -2.388,-0.065 -2.52,-0.0956 -0.132,-0.0306 -0.95812,-0.17055 -1.83578,-0.31098 -2.11152,-0.33782 -3.248,-0.96038 -3.83882,-2.10289 -0.6646,-1.28522 -0.62793,-1.80328 0.50116,-7.07991 0.54262,-2.53581 1.04614,-4.91638 1.11894,-5.29015 0.0728,-0.37377 2.6648,-12.613768 5.76,-27.199998 3.0952,-14.586231 5.69354,-26.88042 5.77411,-27.32042 0.0806,-0.44 0.47165,-2.312 0.86909,-4.160001 l 0.72262,-3.36 6.38433,0.02166 c 6.98096,0.02368 8.92492,0.324103 10.66236,1.64768 0.59293,0.451674 1.36567,1.471447 1.71722,2.26616 0.63728,1.440679 0.65274,2.977706 0.081,8.041364 -0.071,0.628717 -0.21133,2.043123 -0.31181,3.143123 l -0.18275,2 h 4.16307 c 4.05546,0 4.16733,-0.01862 4.32679,-0.72 0.19043,-0.837571 2.98032,-16.181197 3.2438,-17.84 0.0979,-0.616 0.37866,-2.183072 0.624,-3.482384 0.24535,-1.299309 0.39114,-2.451309 0.32397,-2.56 -0.20352,-0.329284 -78.88461,-0.185732 -79.20006,0.144496 -0.15652,0.16384 -0.86868,2.817888 -1.58256,5.897888 -0.71389,3.08 -1.95104,8.336 -2.74919,11.68 -0.79817,3.344 -1.45126,6.26 -1.45133,6.48 -9e-5,0.299328 1.03853,0.4 4.12685,0.4 h 4.12695 l 1.19292,-3.722608 c 2.77719,-8.666528 5.66912,-12.195443 10.72864,-13.091674 0.78349,-0.138784 4.12452,-0.269168 7.42452,-0.289744 6.664,-0.04155 6.2486,-0.203913 5.68969,2.224026 -0.16205,0.704 -0.37971,1.784 -0.48365,2.4 -0.10396,0.616 -0.25276,1.336 -0.33068,1.6 -0.078,0.264 -0.72605,3.288 -1.44023,6.72 -0.71421,3.432 -1.52352,7.32 -1.79846,8.64 -0.27498,1.32 -0.54605,2.634394 -0.6024,2.920871 -0.0564,0.28648 -0.39379,1.87048 -0.74989,3.52 -0.35613,1.649523 -0.71558,3.380432 -0.79882,3.84647 -0.0832,0.466036 -0.52355,2.590036 -0.97846,4.720001 -0.45491,2.129961 -1.18042,5.564659 -1.61229,7.632659 -0.43184,2.068 -1.2879,6.136 -1.90237,9.040001 -0.61449,2.904 -1.20233,5.784 -1.30633,6.4 -0.104,0.616 -0.25242,1.336 -0.32983,1.6 -0.0774,0.264 -0.57376,2.55509 -1.10294,5.09131 -0.93466,4.47917 -1.75206,6.69436 -2.85402,7.73428 -1.75209,1.65344 -4.16921,2.46127 -8.19932,2.74033 -1.584,0.10968 -2.90772,0.21993 -2.94157,0.245 -0.0834,0.0617 -1.37843,6.0127 -1.37843,6.3341 0,0.14024 9.84953,0.25498 21.88787,0.25498 h 21.88787 l 0.51011,-2.32 z"
       id="path3639" />
  </g>
</svg>
